<svg width="82" height="100" viewBox="0 0 82 100" fill="none" xmlns="http://www.w3.org/2000/svg">
<g clip-path="url(#clip0)">
<path d="M67.9651 53.1279C67.8517 40.4828 78.2928 34.4121 78.7651 34.1161C72.8896 25.5202 63.7459 24.3426 60.4838 24.2041C52.7066 23.4169 45.3009 28.7823 41.3588 28.7823C37.4166 28.7823 31.3208 24.3175 24.8723 24.4434C16.3834 24.5694 8.56841 29.3742 4.19804 36.9688C-4.61196 52.2525 1.94989 74.9042 10.5269 87.31C14.7272 93.3743 19.7273 100.207 26.3018 99.955C32.6369 99.7031 35.0299 95.8617 42.6749 95.8617C50.3199 95.8617 52.4736 99.955 59.1677 99.8354C65.9751 99.7032 70.2951 93.6388 74.464 87.5555C79.2752 80.5151 81.2651 73.7014 81.3785 73.3424C81.2273 73.2794 68.1036 68.2478 67.9651 53.1279Z" fill="#B3B3B3"/>
<path d="M55.3891 15.9974C58.8778 11.7719 61.2329 5.89635 60.5843 0.0400391C55.5586 0.241773 49.4757 3.3903 45.8672 7.61584C42.6367 11.3503 39.8029 17.3327 40.5709 23.0697C46.1757 23.5043 51.8998 20.2167 55.3891 15.9974Z" fill="#B3B3B3"/>
</g>
<defs>
<clipPath id="clip0">
<rect width="81.4007" height="100" fill="white"/>
</clipPath>
</defs>
</svg>
