<svg width="100" height="100" viewBox="0 0 100 100" fill="none" xmlns="http://www.w3.org/2000/svg">
<g clip-path="url(#clip0)">
<path d="M46.4986 37.5819L34.0792 47.1361C32.8056 42.3583 28.6639 38.8541 23.5681 38.8541H14.6515V60.8292H23.5681C28.6636 60.8292 33.1215 57.3244 34.0769 52.5473L46.4983 62.1014L58.9197 52.5473V60.8292H72.9308V56.3696H63.6969V38.8543H58.5999V47.1333L46.816 56.6901L44.2674 54.4596L50.0021 49.9998L56.0514 45.2228L52.5493 42.3582L40.7654 51.5921L38.2182 49.3622L50.0021 40.4457L46.4974 37.5811L46.4986 37.5819ZM19.4292 43.3111H23.2514C24.0476 43.3111 24.8243 43.4926 25.5408 43.8211C26.2574 44.1495 26.9122 44.6264 27.4696 45.2236C28.0269 45.8207 28.4858 46.5361 28.8042 47.3422C29.1227 48.1483 29.3006 49.0452 29.3006 50.0007C29.3006 50.8765 29.1412 51.7322 28.8476 52.5234C28.554 53.3147 28.1264 54.0412 27.5889 54.6583C27.0515 55.2753 26.4053 55.7834 25.6738 56.1368C24.9423 56.4901 24.1271 56.6874 23.2514 56.6874H19.4292V43.3112L19.4292 43.3111ZM88.8556 56.371V60.8296H74.8431V38.8546H79.9386V56.3698H88.8558L88.8556 56.371ZM50 0.00012207C22.6111 0.00012207 0 22.6112 0 50.0001C0 77.389 22.2931 100 50 100C77.7069 100 100 77.7071 100 50.0001C100 22.2932 77.3889 0.00012207 50 0.00012207ZM50 5.09721C53.105 5.09717 56.1344 5.40883 59.0603 6.00595C61.9862 6.60308 64.8096 7.48373 67.4967 8.61832C70.1837 9.75287 72.7363 11.1429 75.1247 12.7551C77.5132 14.3673 79.7378 16.2018 81.7681 18.2321C83.7983 20.2623 85.6326 22.4869 87.245 24.8754C88.8572 27.2639 90.2472 29.8164 91.3818 32.5035C92.5164 35.1905 93.3969 38.014 93.9942 40.9398C94.5913 43.8658 94.9029 46.8951 94.9029 50.0001C94.9029 53.1051 94.5913 56.1346 93.9942 59.0604C93.397 61.9864 92.5164 64.8097 91.3818 67.4968C90.2472 70.1839 88.8572 72.7364 87.245 75.1248C85.6328 77.5133 83.7983 79.7379 81.7681 81.7682C79.7378 83.7985 77.5132 85.6328 75.1247 87.2451C72.7363 88.8573 70.1837 90.2473 67.4967 91.3819C64.8096 92.5165 61.9861 93.3971 59.0603 93.9943C56.1343 94.5914 53.105 94.903 50 94.903C46.895 94.903 43.8656 94.5914 40.9397 93.9943C38.0133 93.4012 35.1897 92.5207 32.5022 91.3859C29.8161 90.2512 27.2633 88.861 24.8744 87.2485C22.4856 85.6373 20.2619 83.8026 18.2314 81.7721C16.2008 79.7415 14.3661 77.5179 12.7544 75.129C11.1422 72.7401 9.75222 70.1873 8.61764 67.5012C7.48306 64.8137 6.6025 61.9901 6.00528 59.0637C5.40819 56.1387 5.09653 53.1096 5.09653 50.004C5.09653 46.8985 5.40819 43.8693 6.00528 40.9443C6.60236 38.0179 7.48306 35.1943 8.61764 32.5068C9.75222 29.8207 11.1422 27.2679 12.7544 24.879C14.3661 22.4901 16.2008 20.2665 18.2314 18.236C20.2619 16.2054 22.4856 14.3707 24.8744 12.759C27.2633 11.1468 29.8161 9.75679 32.5022 8.6222C35.1897 7.48762 38.0133 6.60707 40.9397 6.00984C43.8647 5.41276 46.8939 5.10109 49.9994 5.10109L50 5.09721Z" fill="#00ADEF"/>
</g>
<defs>
<clipPath id="clip0">
<rect width="100" height="100" fill="white"/>
</clipPath>
</defs>
</svg>
