<svg width="100" height="100" viewBox="0 0 100 100" fill="none" xmlns="http://www.w3.org/2000/svg">
<path d="M99.9 49.9999C99.9 22.4398 77.5601 0.0998993 50 0.0998993C49.2485 0.0998993 48.5009 0.118874 47.7571 0.15303L37.5501 28.2065H46.4402C51.7287 28.2065 54.5788 32.2786 52.7685 37.2521L40.1782 71.8521L29.607 71.8502L43.1175 34.7644H35.1687L21.6581 71.8502H11.083L26.9694 28.2065H26.9713L36.5273 1.94243C15.5138 7.82105 0.0999756 27.1097 0.0999756 49.9999C0.0999756 73.5694 16.4436 93.3211 38.4154 98.545L47.6755 73.0969H47.6831L64.0191 28.2065H83.4899C88.7841 28.2065 91.6323 32.2786 89.8221 37.2521L78.7593 67.6415C77.9168 69.9565 75.2128 71.8502 72.7498 71.8502H58.7154L48.518 99.8771C49.0095 99.8904 49.5047 99.8999 50 99.8999C77.5601 99.8999 99.9 77.5581 99.9 49.9999Z" fill="#0096D6"/>
<path d="M80.1939 34.7378H72.2488L61.1215 65.2676H69.0666L80.1939 34.7378Z" fill="#0096D6"/>
</svg>
